<svg width="149" height="133" viewBox="0 0 149 133" fill="none" xmlns="http://www.w3.org/2000/svg">
<path d="M147 31.2C146.9 31.1 146.9 30.9 146.8 30.8L146.7 30.6C146 29.1 145 27.6 143.9 26.4L144 26.3C145.1 25.2 146.5 18.2 144.4 12.4C143.3 8.6 140.3 5.60001 136.5 4.50001C130.6 2.50001 123.7 3.80001 122.6 5.00001L122.5 5.10002C121.3 3.90002 119.8 3 118.3 2.3C118.1 2.2 117.9 2.10001 117.6 2.00001C109.6 -1.49999 98.9 0.699998 97.3 2.3C95.6 3.9 93.6 13.7 96.5 21.6C97.2 23.8 98.4 25.9 100 27.6L99.9 27.7C98.8 28.8 97.4 35.9 99.5 41.8L93 48.2L91.2 46.4C90.9 46.1 90.3 46.1 90 46.4L88.6 47.9L81 55.5C80.7 55.8 80.7 56.4 81 56.7L82.8 58.5L34.4 106.9L32.8 105.3L30.9 107.2C30.3 107.8 29.3 107.8 28.6 107.2C27.9 106.6 28 105.6 28.6 104.9L30.5 103L28.7 101.2L34.9 95C35.3 94.6 35.3 93.8 34.9 93.4L31.6 90.1L29.7 92L24.9 87.2L26.8 85.3L24.4 82.9C24 82.5 23.3 82.5 22.8 82.9L17 88.8L20.6 101.3L18.2 103.7L5.70002 100L0.30003 105.4C-0.0999695 105.8 -0.0999695 106.6 0.30003 107L2.70002 109.4L4.60003 107.5L9.40003 112.3L7.50003 114.2L10.8 117.5C11.2 117.9 12 117.9 12.4 117.5L18.6 111.3L20.4 113.1L22.3 111.2C22.9 110.6 23.9 110.6 24.5 111.2C25.1 111.8 25.1 112.8 24.5 113.4L22.6 115.3L24.2 116.9L18.2 122.9C15.6 125.5 14.7 128.8 17.3 131.4C19.9 134 23.2 133.1 25.8 130.5L90.2 66.1L92 67.9C92.3 68.2 92.9 68.2 93.2 67.9L100.8 60.3L102.2 58.8C102.5 58.5 102.5 57.9 102.2 57.6L100.4 55.8L106.9 49.3C112.8 51.4 119.9 50 121 48.9L121.1 48.8C122.8 50.4 124.9 51.6 127.1 52.3C135 55.2 144.9 53.1 146.4 51.6C148.3 50 150.6 39.3 147 31.2ZM127 9.19999C127.8 8.39999 134.1 7.69999 137.6 11.2C141.1 14.7 140.4 21.1 139.6 21.8C138.8 22.5 132.5 23.3 129 19.8C125.5 16.3 126.2 9.99999 127 9.19999ZM119 12.9C121.4 17.6 120.5 23.7 119.7 24.6C118.8 25.5 112.7 26.4 108 23.9C110.4 22.7 112.6 21.2 114.4 19.3C116.3 17.4 117.8 15.3 119 12.9ZM103 7.9C103.9 7 110 6.10002 114.7 8.60002C109.9 10.9 106 14.8 103.7 19.6C101.2 14.9 102.1 8.8 103 7.9ZM117 44.6C116.2 45.4 109.9 46.1 106.3 42.6C102.7 39.1 103.5 32.7 104.3 32C105.1 31.3 111.4 30.5 115 34C118.6 37.5 117.7 43.9 117 44.6ZM119.2 31.7C118.7 32.2 117.8 32.2 117.3 31.7C116.8 31.2 116.8 30.3 117.3 29.8L124.1 23C124.7 22.5 125.5 22.6 126 23.1C126.4 23.6 126.4 24.3 126 24.8L119.2 31.7ZM125 40.9C122.6 36.2 123.5 30.1 124.3 29.2C125.1 28.3 131.3 27.4 136 29.9C131.3 32.3 127.4 36.1 125 40.9ZM141 45.9C140.1 46.8 134 47.7 129.3 45.2C134.1 42.9 138 39 140.3 34.2C142.8 38.9 141.9 45 141 45.9Z" fill="#ED1C24"/>
<path d="M148.6 105.4L139.7 96.5L136 109L133.4 106.3L136.8 95.1L136.7 95L125.5 98.5L122.9 95.9L135.4 92.3L126 82.9C125.6 82.5 124.9 82.5 124.4 82.9L122 85.3L123.9 87.2L119.1 92L117.2 90.1L113.9 93.4C113.5 93.8 113.5 94.6 113.9 95L120.1 101.2L118.3 103L120.2 104.9C120.8 105.5 120.8 106.5 120.2 107.1C119.6 107.7 118.6 107.7 118 107.1L116.1 105.2L114.5 106.8L66.1 58.4L67.9 56.6C68.2 56.3 68.2 55.7 67.9 55.4L60.3 47.8L58.8 46.4C58.5 46.1 57.9 46.1 57.6 46.4L55.8 48.2L49.3 41.7C51.4 35.8 50 28.8 48.9 27.6L48.8 27.5C50.4 25.8 51.6 23.7 52.3 21.5C55.2 13.6 53.1 3.79998 51.5 2.19998C49.9 0.599983 39.2 -1.70001 31.1 1.79999C30.9 1.89999 30.7 2.00001 30.4 2.10001C28.9 2.80001 27.4 3.7 26.2 4.9L26.1 4.79999C25 3.69999 18 2.29999 12.2 4.29999C8.40002 5.39999 5.40003 8.39998 4.30003 12.2C2.30003 18 3.60003 25 4.80003 26.1L4.90003 26.2C3.70003 27.4 2.80003 28.9 2.10003 30.4L2.00003 30.6C1.90003 30.7 1.90003 30.9 1.80003 31C-1.79997 39.1 0.400026 49.8 2.10003 51.4C3.70003 53 13.5 55.1 21.4 52.1C23.6 51.4 25.7 50.2 27.4 48.6L27.5 48.7C28.6 49.8 35.7 51.2 41.6 49.1L48.1 55.6L46.3 57.4C46 57.7 46 58.3 46.3 58.6L55.4 67.7C55.7 68 56.3 68 56.6 67.7L58.4 65.9L122.8 130.3C125.4 132.9 128.7 133.8 131.3 131.2C133.9 128.6 133 125.3 130.4 122.7L124.4 116.7L126 115.1L124.1 113.2C123.5 112.6 123.5 111.6 124.1 111C124.7 110.4 125.7 110.4 126.3 111L128.2 112.9L130 111.1L136.2 117.3C136.6 117.7 137.4 117.7 137.8 117.3L141.1 114L139.2 112.1L144 107.3L145.9 109.2L148.3 106.8C149 106.6 149 105.9 148.6 105.4ZM29.9 12.9C31.1 15.3 32.6 17.5 34.5 19.3C36.4 21.2 38.6 22.7 40.9 23.9C36.2 26.3 30.1 25.4 29.2 24.6C28.3 23.8 27.5 17.6 29.9 12.9ZM11.3 11.3C14.8 7.79999 21.2 8.49999 22 9.29999C22.8 10.1 23.5 16.4 20 19.9C16.5 23.4 10.1 22.7 9.30003 21.9C8.50003 21.1 7.80003 14.8 11.3 11.3ZM7.90003 45.9C7.00003 45 6.10003 38.9 8.60003 34.2C10.9 39 14.8 42.9 19.6 45.2C14.9 47.7 8.80003 46.8 7.90003 45.9ZM23.9 40.9C22.7 38.5 21.2 36.3 19.3 34.5C17.4 32.6 15.2 31.1 12.9 29.9C17.6 27.5 23.7 28.4 24.6 29.2C25.5 30 26.3 36.3 23.9 40.9ZM29.8 31.7L23 24.9C22.4 24.5 22.2 23.7 22.6 23C23 22.4 23.8 22.2 24.5 22.6C24.7 22.7 24.8 22.8 24.9 23L31.7 29.8C32.2 30.3 32.2 31.2 31.7 31.7C31.2 32.2 30.3 32.3 29.8 31.7ZM42.6 42.6C39.1 46.1 32.7 45.4 31.9 44.6C31.1 43.8 30.4 37.5 34 34C37.5 30.5 43.9 31.2 44.7 32C45.4 32.8 46.1 39.1 42.6 42.6ZM45.2 19.6C42.9 14.8 39 10.9 34.2 8.60001C38.8 6.10001 45 7 45.9 7.9C46.8 8.8 47.7 14.9 45.2 19.6Z" fill="#ED1C24"/>
</svg>
